# Blender v2.82 (sub 7) OBJ File: 'Box_A.blend'
# www.blender.org
mtllib Box_A.mtl
o Cube.006_Cube.008
v 0.269603 0.057477 -0.357065
v 0.352536 0.057477 -0.274133
v 0.269603 0.025194 -0.357065
v 0.352536 0.025194 -0.274133
v -0.361593 0.057477 0.274133
v -0.278661 0.057477 0.357065
v -0.361593 0.025194 0.274133
v -0.278661 0.025194 0.357065
v -0.309732 0.059732 0.309732
v -0.309732 0.679195 0.309732
v -0.309732 0.059732 -0.309732
v -0.309732 0.679195 -0.309732
v 0.309732 0.059732 0.309732
v 0.309732 0.679195 0.309732
v 0.309732 0.059732 -0.309732
v 0.309732 0.679195 -0.309732
v -0.309732 0.059732 0.309732
v -0.368882 0.000581 0.368882
v -0.309732 0.679195 0.309732
v -0.368882 0.738346 0.368882
v -0.309732 0.059732 -0.309732
v -0.368882 0.000581 -0.368882
v -0.309732 0.679195 -0.309732
v -0.368882 0.738346 -0.368882
v 0.309732 0.059732 0.309732
v 0.368882 0.000581 0.368882
v 0.309732 0.679195 0.309732
v 0.368882 0.738346 0.368882
v 0.309732 0.059732 -0.309732
v 0.368882 0.000581 -0.368882
v 0.309732 0.679195 -0.309732
v 0.368882 0.738346 -0.368882
v -0.368882 0.059732 0.309732
v -0.368882 0.679195 0.309732
v -0.368882 0.679195 -0.309732
v -0.368882 0.059732 -0.309732
v -0.309732 0.059732 -0.368882
v -0.309732 0.679195 -0.368882
v 0.309732 0.679195 -0.368882
v 0.309732 0.059732 -0.368882
v 0.368882 0.059732 -0.309732
v 0.368882 0.679195 -0.309732
v 0.368882 0.679195 0.309732
v 0.368882 0.059732 0.309732
v 0.309732 0.059732 0.368882
v 0.309732 0.679195 0.368882
v -0.309732 0.679195 0.368882
v -0.309732 0.059732 0.368882
v -0.309732 0.000581 -0.309732
v 0.309732 0.000581 -0.309732
v 0.309732 0.000581 0.309732
v -0.309732 0.000581 0.309732
v 0.309732 0.738346 -0.309732
v -0.309732 0.738346 -0.309732
v -0.309732 0.738346 0.309732
v 0.309732 0.738346 0.309732
v -0.357065 0.641649 0.344666
v -0.274132 0.724582 0.344666
v -0.357065 0.641649 0.312384
v -0.274132 0.724582 0.312384
v 0.274132 0.010452 0.344666
v 0.357065 0.093385 0.344666
v 0.274132 0.010452 0.312384
v 0.357065 0.093385 0.312384
v -0.344666 0.641649 0.357065
v -0.344666 0.724581 0.274132
v -0.312384 0.641649 0.357065
v -0.312384 0.724581 0.274132
v -0.344667 0.010452 -0.274133
v -0.344666 0.093384 -0.357065
v -0.312384 0.010452 -0.274133
v -0.312384 0.093384 -0.357065
v 0.357065 0.641649 -0.344667
v 0.274132 0.724581 -0.344667
v 0.357065 0.641649 -0.312384
v 0.274132 0.724581 -0.312384
v -0.274132 0.010452 -0.344666
v -0.357065 0.093384 -0.344666
v -0.274132 0.010452 -0.312384
v -0.357065 0.093384 -0.312384
v 0.344666 0.641649 -0.357065
v 0.344666 0.724581 -0.274133
v 0.312384 0.641649 -0.357065
v 0.312384 0.724581 -0.274132
v 0.344667 0.010452 0.274132
v 0.344667 0.093384 0.357065
v 0.312384 0.010452 0.274132
v 0.312384 0.093384 0.357065
v 0.357065 0.711922 0.269603
v 0.274133 0.711922 0.352536
v 0.357065 0.679639 0.269603
v 0.274133 0.679639 0.352536
v -0.274133 0.711921 -0.361593
v -0.357065 0.711921 -0.278661
v -0.274133 0.679639 -0.361593
v -0.357065 0.679639 -0.278661
vt 0.375000 0.000000
vt 0.625000 0.000000
vt 0.625000 0.250000
vt 0.375000 0.250000
vt 0.625000 0.500000
vt 0.375000 0.500000
vt 0.625000 0.750000
vt 0.375000 0.750000
vt 0.625000 1.000000
vt 0.375000 1.000000
vt 0.125000 0.500000
vt 0.125000 0.750000
vt 0.875000 0.500000
vt 0.875000 0.750000
vt 0.375000 0.000000
vt 0.625000 0.000000
vt 0.625000 0.250000
vt 0.375000 0.250000
vt 0.625000 0.500000
vt 0.375000 0.500000
vt 0.625000 0.750000
vt 0.375000 0.750000
vt 0.625000 1.000000
vt 0.375000 1.000000
vt 0.125000 0.500000
vt 0.125000 0.750000
vt 0.875000 0.500000
vt 0.875000 0.750000
vt 0.375000 0.000000
vt 0.625000 0.000000
vt 0.625000 0.000000
vt 0.375000 0.000000
vt 0.375000 0.000000
vt 0.625000 0.000000
vt 0.625000 0.250000
vt 0.625000 0.250000
vt 0.625000 0.250000
vt 0.375000 0.250000
vt 0.375000 0.250000
vt 0.375000 0.250000
vt 0.375000 0.250000
vt 0.625000 0.250000
vt 0.625000 0.500000
vt 0.625000 0.500000
vt 0.625000 0.500000
vt 0.375000 0.500000
vt 0.375000 0.500000
vt 0.375000 0.500000
vt 0.375000 0.500000
vt 0.625000 0.500000
vt 0.625000 0.750000
vt 0.625000 0.750000
vt 0.625000 0.750000
vt 0.375000 0.750000
vt 0.375000 0.750000
vt 0.375000 0.750000
vt 0.375000 0.750000
vt 0.625000 0.750000
vt 0.625000 1.000000
vt 0.625000 1.000000
vt 0.625000 1.000000
vt 0.375000 1.000000
vt 0.375000 1.000000
vt 0.375000 1.000000
vt 0.125000 0.500000
vt 0.375000 0.500000
vt 0.125000 0.500000
vt 0.125000 0.500000
vt 0.375000 0.750000
vt 0.125000 0.750000
vt 0.125000 0.750000
vt 0.125000 0.750000
vt 0.625000 0.500000
vt 0.875000 0.500000
vt 0.875000 0.500000
vt 0.875000 0.500000
vt 0.875000 0.750000
vt 0.875000 0.750000
vt 0.875000 0.750000
vt 0.625000 0.750000
vt 0.375000 0.000000
vt 0.625000 0.000000
vt 0.625000 0.250000
vt 0.375000 0.250000
vt 0.625000 0.500000
vt 0.375000 0.500000
vt 0.625000 0.750000
vt 0.375000 0.750000
vt 0.625000 1.000000
vt 0.375000 1.000000
vt 0.125000 0.500000
vt 0.125000 0.750000
vt 0.875000 0.500000
vt 0.875000 0.750000
vt 0.375000 0.000000
vt 0.625000 0.000000
vt 0.625000 0.250000
vt 0.375000 0.250000
vt 0.625000 0.500000
vt 0.375000 0.500000
vt 0.625000 0.750000
vt 0.375000 0.750000
vt 0.625000 1.000000
vt 0.375000 1.000000
vt 0.125000 0.500000
vt 0.125000 0.750000
vt 0.875000 0.500000
vt 0.875000 0.750000
vt 0.375000 0.000000
vt 0.625000 0.000000
vt 0.625000 0.250000
vt 0.375000 0.250000
vt 0.625000 0.500000
vt 0.375000 0.500000
vt 0.625000 0.750000
vt 0.375000 0.750000
vt 0.625000 1.000000
vt 0.375000 1.000000
vt 0.125000 0.500000
vt 0.125000 0.750000
vt 0.875000 0.500000
vt 0.875000 0.750000
vt 0.375000 0.000000
vt 0.625000 0.000000
vt 0.625000 0.250000
vt 0.375000 0.250000
vt 0.625000 0.500000
vt 0.375000 0.500000
vt 0.625000 0.750000
vt 0.375000 0.750000
vt 0.625000 1.000000
vt 0.375000 1.000000
vt 0.125000 0.500000
vt 0.125000 0.750000
vt 0.875000 0.500000
vt 0.875000 0.750000
vt 0.375000 0.000000
vt 0.625000 0.000000
vt 0.625000 0.250000
vt 0.375000 0.250000
vt 0.625000 0.500000
vt 0.375000 0.500000
vt 0.625000 0.750000
vt 0.375000 0.750000
vt 0.625000 1.000000
vt 0.375000 1.000000
vt 0.125000 0.500000
vt 0.125000 0.750000
vt 0.875000 0.500000
vt 0.875000 0.750000
vn -1.0000 0.0000 -0.0000
vn 0.0000 0.0000 -1.0000
vn 1.0000 -0.0000 0.0000
vn -0.0000 -0.0000 1.0000
vn 0.0000 -1.0000 0.0000
vn 0.0000 1.0000 0.0000
vn 0.7071 0.0000 -0.7071
vn -0.7071 0.0000 0.7071
vn -0.7071 0.0000 -0.7071
vn 0.7071 0.0000 0.7071
vn -0.7071 0.7071 -0.0000
vn 0.7071 -0.7071 0.0000
vn -0.7071 -0.7071 -0.0000
vn 0.7071 0.7071 0.0000
vn 0.0000 -0.7071 -0.7071
vn 0.0000 0.7071 0.7071
vn 0.0000 0.7071 -0.7071
vn 0.0000 -0.7071 0.7071
usemtl Box_Back
s off
f 9/1/1 10/2/1 12/3/1 11/4/1
f 11/4/2 12/3/2 16/5/2 15/6/2
f 15/6/3 16/5/3 14/7/3 13/8/3
f 13/8/4 14/7/4 10/9/4 9/10/4
f 11/11/5 15/6/5 13/8/5 9/12/5
f 16/5/6 12/13/6 10/14/6 14/7/6
usemtl Box_Top
f 1/15/7 2/16/7 4/17/7 3/18/7
f 3/18/5 4/17/5 8/19/5 7/20/5
f 7/20/8 8/19/8 6/21/8 5/22/8
f 5/22/6 6/21/6 2/23/6 1/24/6
f 3/25/9 7/20/9 5/22/9 1/26/9
f 8/19/10 4/27/10 2/28/10 6/21/10
f 33/29/2 34/30/2 19/31/2 17/32/2
f 34/30/1 33/29/1 18/33/1 20/34/1
f 34/30/5 35/35/5 23/36/5 19/31/5
f 35/35/1 34/30/1 20/34/1 24/37/1
f 35/35/4 36/38/4 21/39/4 23/36/4
f 36/38/1 35/35/1 24/37/1 22/40/1
f 36/38/6 33/29/6 17/32/6 21/39/6
f 33/29/1 36/38/1 22/40/1 18/33/1
f 37/41/3 38/42/3 23/36/3 21/39/3
f 38/42/2 37/41/2 22/40/2 24/37/2
f 38/42/5 39/43/5 31/44/5 23/36/5
f 39/43/2 38/42/2 24/37/2 32/45/2
f 39/43/1 40/46/1 29/47/1 31/44/1
f 40/46/2 39/43/2 32/45/2 30/48/2
f 40/46/6 37/41/6 21/39/6 29/47/6
f 37/41/2 40/46/2 30/48/2 22/40/2
f 41/49/4 42/50/4 31/44/4 29/47/4
f 42/50/3 41/49/3 30/48/3 32/45/3
f 42/50/5 43/51/5 27/52/5 31/44/5
f 43/51/3 42/50/3 32/45/3 28/53/3
f 43/51/2 44/54/2 25/55/2 27/52/2
f 44/54/3 43/51/3 28/53/3 26/56/3
f 44/54/6 41/49/6 29/47/6 25/55/6
f 41/49/3 44/54/3 26/56/3 30/48/3
f 45/57/1 46/58/1 27/52/1 25/55/1
f 46/58/4 45/57/4 26/56/4 28/53/4
f 46/58/5 47/59/5 19/60/5 27/52/5
f 47/59/4 46/58/4 28/53/4 20/61/4
f 47/59/3 48/62/3 17/63/3 19/60/3
f 48/62/4 47/59/4 20/61/4 18/64/4
f 48/62/6 45/57/6 25/55/6 17/63/6
f 45/57/4 48/62/4 18/64/4 26/56/4
f 49/65/4 50/66/4 29/47/4 21/67/4
f 50/66/5 49/65/5 22/68/5 30/48/5
f 50/66/1 51/69/1 25/55/1 29/47/1
f 51/69/5 50/66/5 30/48/5 26/56/5
f 51/69/2 52/70/2 17/71/2 25/55/2
f 52/70/5 51/69/5 26/56/5 18/72/5
f 52/70/3 49/65/3 21/67/3 17/71/3
f 49/65/5 52/70/5 18/72/5 22/68/5
f 53/73/4 54/74/4 23/75/4 31/44/4
f 54/74/6 53/73/6 32/45/6 24/76/6
f 54/74/3 55/77/3 19/78/3 23/75/3
f 55/77/6 54/74/6 24/76/6 20/79/6
f 55/77/2 56/80/2 27/52/2 19/78/2
f 56/80/6 55/77/6 20/79/6 28/53/6
f 56/80/1 53/73/1 31/44/1 27/52/1
f 53/73/6 56/80/6 28/53/6 32/45/6
f 57/81/11 58/82/11 60/83/11 59/84/11
f 59/84/2 60/83/2 64/85/2 63/86/2
f 63/86/12 64/85/12 62/87/12 61/88/12
f 61/88/4 62/87/4 58/89/4 57/90/4
f 59/91/13 63/86/13 61/88/13 57/92/13
f 64/85/14 60/93/14 58/94/14 62/87/14
f 65/95/15 66/96/15 68/97/15 67/98/15
f 67/98/1 68/97/1 72/99/1 71/100/1
f 71/100/16 72/99/16 70/101/16 69/102/16
f 69/102/3 70/101/3 66/103/3 65/104/3
f 67/105/17 71/100/17 69/102/17 65/106/17
f 72/99/18 68/107/18 66/108/18 70/101/18
f 73/109/14 74/110/14 76/111/14 75/112/14
f 75/112/4 76/111/4 80/113/4 79/114/4
f 79/114/13 80/113/13 78/115/13 77/116/13
f 77/116/2 78/115/2 74/117/2 73/118/2
f 75/119/12 79/114/12 77/116/12 73/120/12
f 80/113/11 76/121/11 74/122/11 78/115/11
f 81/123/18 82/124/18 84/125/18 83/126/18
f 83/126/3 84/125/3 88/127/3 87/128/3
f 87/128/17 88/127/17 86/129/17 85/130/17
f 85/130/1 86/129/1 82/131/1 81/132/1
f 83/133/16 87/128/16 85/130/16 81/134/16
f 88/127/15 84/135/15 82/136/15 86/129/15
f 89/137/10 90/138/10 92/139/10 91/140/10
f 91/140/5 92/139/5 96/141/5 95/142/5
f 95/142/9 96/141/9 94/143/9 93/144/9
f 93/144/6 94/143/6 90/145/6 89/146/6
f 91/147/7 95/142/7 93/144/7 89/148/7
f 96/141/8 92/149/8 90/150/8 94/143/8
