# Blender v2.82 (sub 7) OBJ File: ''
# www.blender.org
mtllib PineTree.mtl
o Cylinder
v 0.000000 1.203419 0.289681
v 0.110856 1.203419 0.267630
v 0.166284 1.203419 0.401446
v 0.000000 1.203419 0.434522
v 0.000000 0.000000 -0.100000
v 0.038268 0.000000 -0.092388
v 0.070711 0.000000 -0.070711
v 0.092388 0.000000 -0.038268
v 0.100000 0.000000 0.000000
v 0.092388 -0.000000 0.038268
v 0.070711 -0.000000 0.070711
v 0.038268 -0.000000 0.092388
v 0.000000 -0.000000 0.100000
v -0.038268 -0.000000 0.092388
v -0.070711 -0.000000 0.070711
v -0.092388 -0.000000 0.038268
v -0.100000 0.000000 0.000000
v -0.092388 0.000000 -0.038268
v -0.070711 0.000000 -0.070711
v -0.038268 0.000000 -0.092388
v 0.191342 0.674031 -0.461940
v 0.353553 0.674031 -0.353553
v 0.461940 0.674031 -0.191342
v 0.500000 0.674031 0.000000
v 0.461940 0.674031 0.191342
v 0.353553 0.674031 0.353553
v 0.191342 0.674031 0.461940
v 0.000000 0.674031 0.500000
v -0.191342 0.674031 0.461940
v -0.353553 0.674031 0.353553
v -0.461940 0.674031 0.191342
v -0.500000 0.674031 0.000000
v -0.461940 0.674031 -0.191342
v -0.353553 0.674031 -0.353553
v -0.191341 0.674031 -0.461940
v 0.000000 0.674031 -0.500000
v 0.110856 1.203419 -0.267630
v 0.000000 1.203419 -0.289681
v 0.000000 1.203419 -0.434522
v 0.166284 1.203419 -0.401446
v -0.110856 1.203419 -0.267631
v -0.166284 1.203419 -0.401446
v -0.110856 1.203419 0.267630
v -0.166284 1.203419 0.401446
v 0.204836 1.203419 -0.204836
v 0.307253 1.203419 -0.307253
v -0.204835 1.203419 0.204836
v -0.307253 1.203419 0.307253
v 0.267630 1.203419 -0.110856
v 0.401446 1.203419 -0.166284
v -0.267630 1.203419 0.110856
v -0.401446 1.203419 0.166284
v 0.289681 1.203419 0.000000
v 0.434522 1.203419 0.000000
v -0.289681 1.203419 0.000000
v -0.434522 1.203419 0.000000
v 0.267630 1.203419 0.110856
v 0.401446 1.203419 0.166284
v -0.267630 1.203419 -0.110856
v -0.401446 1.203419 -0.166284
v 0.204836 1.203419 0.204835
v 0.307253 1.203419 0.307253
v -0.204835 1.203419 -0.204836
v -0.307253 1.203419 -0.307253
v -0.170192 1.718906 0.070496
v -0.130260 1.718906 0.130260
v -0.224224 1.718906 0.224224
v -0.292962 1.718906 0.121349
v 0.184215 1.718906 0.000000
v 0.170192 1.718906 -0.070496
v 0.292963 1.718906 -0.121349
v 0.317100 1.718906 0.000000
v -0.184215 1.718906 0.000000
v -0.317100 1.718906 0.000000
v 0.170192 1.718906 0.070496
v 0.292963 1.718906 0.121349
v -0.170192 1.718906 -0.070496
v -0.292962 1.718906 -0.121349
v 0.130260 1.718906 0.130260
v 0.224224 1.718906 0.224224
v -0.130260 1.718906 -0.130260
v -0.224224 1.718906 -0.224224
v 0.070496 1.718906 0.170192
v 0.121349 1.718906 0.292962
v -0.070496 1.718906 -0.170192
v -0.121349 1.718906 -0.292963
v 0.000000 1.718906 0.184215
v 0.000000 1.718906 0.317100
v 0.070496 1.718906 -0.170192
v 0.000000 1.718906 -0.184215
v 0.000000 1.718906 -0.317100
v 0.121349 1.718906 -0.292962
v -0.070496 1.718906 0.170192
v -0.121349 1.718906 0.292962
v 0.130260 1.718906 -0.130260
v 0.224224 1.718906 -0.224224
v 0.000000 2.357310 0.000000
v 0.000000 0.800000 -0.100000
v 0.038268 0.800000 -0.092388
v 0.070711 0.800000 -0.070711
v 0.092388 0.800000 -0.038268
v 0.100000 0.800000 0.000000
v 0.092388 0.800000 0.038268
v 0.070711 0.800000 0.070711
v 0.038268 0.800000 0.092388
v 0.000000 0.800000 0.100000
v -0.038268 0.800000 0.092388
v -0.070711 0.800000 0.070711
v -0.092388 0.800000 0.038268
v -0.100000 0.800000 0.000000
v -0.092388 0.800000 -0.038268
v -0.070711 0.800000 -0.070711
v -0.038268 0.800000 -0.092388
vt 0.750000 0.490000
vt 0.841844 0.471731
vt 0.919706 0.419706
vt 0.971731 0.341844
vt 0.990000 0.250000
vt 0.971731 0.158156
vt 0.919706 0.080294
vt 0.841844 0.028269
vt 0.750000 0.010000
vt 0.658156 0.028269
vt 0.580294 0.080294
vt 0.528269 0.158156
vt 0.510000 0.250000
vt 0.528269 0.341844
vt 0.580294 0.419706
vt 0.658156 0.471731
vt 1.000000 0.500000
vt 1.000000 1.000000
vt 0.937500 1.000000
vt 0.937500 0.500000
vt 0.875000 1.000000
vt 0.875000 0.500000
vt 0.812500 1.000000
vt 0.812500 0.500000
vt 0.750000 1.000000
vt 0.750000 0.500000
vt 0.687500 1.000000
vt 0.687500 0.500000
vt 0.625000 1.000000
vt 0.625000 0.500000
vt 0.562500 1.000000
vt 0.562500 0.500000
vt 0.500000 1.000000
vt 0.500000 0.500000
vt 0.437500 1.000000
vt 0.437500 0.500000
vt 0.375000 1.000000
vt 0.375000 0.500000
vt 0.312500 1.000000
vt 0.312500 0.500000
vt 0.250000 1.000000
vt 0.250000 0.500000
vt 0.187500 1.000000
vt 0.187500 0.500000
vt 0.125000 1.000000
vt 0.125000 0.500000
vt 0.062500 1.000000
vt 0.062500 0.500000
vt 0.000000 1.000000
vt 0.000000 0.500000
vt 0.250000 0.010000
vt 0.341844 0.028269
vt 0.341844 0.028269
vt 0.250000 0.010000
vt 0.341844 0.471731
vt 0.419706 0.419706
vt 0.471731 0.341844
vt 0.490000 0.250000
vt 0.471731 0.158156
vt 0.419706 0.080294
vt 0.341844 0.028269
vt 0.250000 0.010000
vt 0.158156 0.028269
vt 0.080294 0.080294
vt 0.028269 0.158156
vt 0.010000 0.250000
vt 0.028269 0.341844
vt 0.080294 0.419706
vt 0.158156 0.471731
vt 0.250000 0.490000
vt 0.341844 0.471731
vt 0.250000 0.490000
vt 0.250000 0.490000
vt 0.341844 0.471731
vt 0.158156 0.471731
vt 0.158156 0.471731
vt 0.158156 0.028269
vt 0.158156 0.028269
vt 0.419706 0.419706
vt 0.419706 0.419706
vt 0.080294 0.080294
vt 0.080294 0.080294
vt 0.471731 0.341844
vt 0.471731 0.341844
vt 0.028269 0.158156
vt 0.028269 0.158156
vt 0.490000 0.250000
vt 0.490000 0.250000
vt 0.010000 0.250000
vt 0.010000 0.250000
vt 0.471731 0.158156
vt 0.471731 0.158156
vt 0.028269 0.341844
vt 0.028269 0.341844
vt 0.419706 0.080294
vt 0.419706 0.080294
vt 0.080294 0.419706
vt 0.080294 0.419706
vt 0.028269 0.158156
vt 0.080294 0.080294
vt 0.080294 0.080294
vt 0.028269 0.158156
vt 0.490000 0.250000
vt 0.471731 0.341844
vt 0.471731 0.341844
vt 0.490000 0.250000
vt 0.010000 0.250000
vt 0.010000 0.250000
vt 0.471731 0.158156
vt 0.471731 0.158156
vt 0.028269 0.341844
vt 0.028269 0.341844
vt 0.419706 0.080294
vt 0.419706 0.080294
vt 0.080294 0.419706
vt 0.080294 0.419706
vt 0.341844 0.028269
vt 0.341844 0.028269
vt 0.158156 0.471731
vt 0.158156 0.471731
vt 0.250000 0.010000
vt 0.250000 0.010000
vt 0.341844 0.471731
vt 0.250000 0.490000
vt 0.250000 0.490000
vt 0.341844 0.471731
vt 0.158156 0.028269
vt 0.158156 0.028269
vt 0.419706 0.419706
vt 0.419706 0.419706
vt 0.341844 0.471731
vt 0.250000 0.490000
vt 0.158156 0.028269
vt 0.419706 0.419706
vt 0.080294 0.080294
vt 0.471731 0.341844
vt 0.028269 0.158156
vt 0.490000 0.250000
vt 0.010000 0.250000
vt 0.471731 0.158156
vt 0.028269 0.341844
vt 0.419706 0.080294
vt 0.080294 0.419706
vt 0.341844 0.028269
vt 0.158156 0.471731
vt 0.250000 0.010000
vn 0.0000 -1.0000 -0.0000
vn 0.0000 -0.6657 -0.7462
vn 0.0000 0.0000 -1.0000
vn 0.3827 0.0000 -0.9239
vn 0.2855 -0.6657 -0.6894
vn 0.7071 0.0000 -0.7071
vn 0.5277 -0.6657 -0.5276
vn 0.9239 0.0000 -0.3827
vn 0.6894 -0.6657 -0.2856
vn 1.0000 -0.0000 0.0000
vn 0.7462 -0.6657 0.0000
vn 0.9239 -0.0000 0.3827
vn 0.6895 -0.6657 0.2854
vn 0.7071 -0.0000 0.7071
vn 0.5276 -0.6657 0.5277
vn 0.3827 -0.0000 0.9239
vn 0.2855 -0.6657 0.6894
vn 0.0000 -0.0000 1.0000
vn -0.0000 -0.6657 0.7462
vn -0.3827 -0.0000 0.9239
vn -0.2855 -0.6657 0.6894
vn -0.7071 -0.0000 0.7071
vn -0.5277 -0.6657 0.5276
vn -0.9239 -0.0000 0.3827
vn -0.6894 -0.6657 0.2856
vn -1.0000 0.0000 0.0000
vn -0.7462 -0.6657 -0.0000
vn -0.9239 0.0000 -0.3827
vn -0.6895 -0.6657 -0.2854
vn -0.7071 0.0000 -0.7071
vn -0.5276 -0.6657 -0.5277
vn -0.3827 0.0000 -0.9239
vn -0.2855 -0.6657 -0.6894
vn 0.6046 -0.5184 -0.6047
vn 0.3272 -0.5184 -0.7901
vn 0.3018 -0.6149 -0.7286
vn 0.5576 -0.6149 -0.5576
vn -0.6047 -0.5184 0.6046
vn -0.3272 -0.5184 0.7901
vn -0.3018 -0.6149 0.7286
vn -0.5576 -0.6149 0.5576
vn 0.7901 -0.5184 -0.3272
vn 0.7286 -0.6149 -0.3018
vn -0.7901 -0.5184 0.3272
vn -0.7286 -0.6149 0.3018
vn 0.8551 -0.5184 -0.0000
vn 0.7886 -0.6149 0.0000
vn -0.8551 -0.5184 0.0000
vn -0.7886 -0.6149 -0.0000
vn 0.7901 -0.5184 0.3272
vn 0.7286 -0.6149 0.3018
vn -0.7901 -0.5184 -0.3272
vn -0.7286 -0.6149 -0.3018
vn 0.6046 -0.5184 0.6047
vn 0.5576 -0.6149 0.5576
vn -0.6047 -0.5184 -0.6046
vn -0.5576 -0.6149 -0.5576
vn 0.3272 -0.5184 0.7901
vn 0.3018 -0.6149 0.7286
vn -0.3272 -0.5184 -0.7901
vn -0.3018 -0.6149 -0.7286
vn 0.0000 -0.5184 0.8551
vn -0.0000 -0.6149 0.7886
vn -0.0000 -0.5184 -0.8551
vn -0.0000 -0.6149 -0.7886
vn -0.8063 -0.4881 -0.3340
vn -0.8728 -0.4882 0.0000
vn -0.8117 -0.5840 -0.0000
vn -0.7500 -0.5840 -0.3106
vn 0.6172 -0.4881 0.6171
vn 0.8063 -0.4881 0.3340
vn 0.7500 -0.5840 0.3106
vn 0.5740 -0.5840 0.5740
vn -0.6172 -0.4881 -0.6171
vn -0.5740 -0.5840 -0.5740
vn 0.3340 -0.4881 0.8063
vn 0.3106 -0.5840 0.7500
vn -0.3340 -0.4881 -0.8063
vn -0.3106 -0.5840 -0.7500
vn 0.0000 -0.4882 0.8728
vn 0.0000 -0.5840 0.8117
vn 0.3340 -0.4881 -0.8063
vn -0.0000 -0.4882 -0.8728
vn -0.0000 -0.5840 -0.8117
vn 0.3106 -0.5840 -0.7500
vn -0.3340 -0.4881 0.8063
vn -0.3106 -0.5840 0.7500
vn 0.6171 -0.4881 -0.6172
vn 0.5740 -0.5840 -0.5740
vn -0.6171 -0.4881 0.6172
vn -0.5740 -0.5840 0.5740
vn 0.8063 -0.4881 -0.3340
vn 0.7500 -0.5840 -0.3106
vn -0.8063 -0.4881 0.3340
vn -0.7500 -0.5840 0.3106
vn 0.8728 -0.4882 -0.0000
vn 0.8117 -0.5840 0.0000
vn 0.3361 -0.4783 -0.8113
vn -0.0000 -0.4783 -0.8782
vn 0.2762 0.6922 -0.6667
vn -0.3361 -0.4783 -0.8113
vn -0.3361 -0.4783 0.8113
vn -0.0000 -0.4782 0.8782
vn 0.6210 -0.4783 -0.6210
vn -0.6210 -0.4783 0.6210
vn 0.8113 -0.4783 -0.3361
vn -0.8113 -0.4783 0.3361
vn 0.8782 -0.4783 -0.0000
vn -0.8782 -0.4782 -0.0000
vn 0.8113 -0.4783 0.3361
vn -0.8113 -0.4783 -0.3361
vn 0.6210 -0.4783 0.6210
vn -0.6210 -0.4783 -0.6210
vn 0.3361 -0.4783 0.8113
usemtl Bark
s off
f 5/1/1 6/2/1 7/3/1 8/4/1 9/5/1 10/6/1 11/7/1 12/8/1 13/9/1 14/10/1 15/11/1 16/12/1 17/13/1 18/14/1 19/15/1 20/16/1
s 1
f 5/17/2 98/18/3 99/19/4 6/20/5
f 6/20/5 99/19/4 100/21/6 7/22/7
f 7/22/7 100/21/6 101/23/8 8/24/9
f 8/24/9 101/23/8 102/25/10 9/26/11
f 9/26/11 102/25/10 103/27/12 10/28/13
f 10/28/13 103/27/12 104/29/14 11/30/15
f 11/30/15 104/29/14 105/31/16 12/32/17
f 12/32/17 105/31/16 106/33/18 13/34/19
f 13/34/19 106/33/18 107/35/20 14/36/21
f 14/36/21 107/35/20 108/37/22 15/38/23
f 15/38/23 108/37/22 109/39/24 16/40/25
f 16/40/25 109/39/24 110/41/26 17/42/27
f 17/42/27 110/41/26 111/43/28 18/44/29
f 18/44/29 111/43/28 112/45/30 19/46/31
f 19/46/31 112/45/30 113/47/32 20/48/33
f 20/48/33 113/47/32 98/49/3 5/50/2
usemtl Leaves
s off
f 1/51/1 2/52/1 3/53/1 4/54/1
f 21/55/1 22/56/1 23/57/1 24/58/1 25/59/1 26/60/1 27/61/1 28/62/1 29/63/1 30/64/1 31/65/1 32/66/1 33/67/1 34/68/1 35/69/1 36/70/1
f 37/71/1 38/72/1 39/73/1 40/74/1
f 38/72/1 41/75/1 42/76/1 39/73/1
f 43/77/1 1/51/1 4/54/1 44/78/1
f 45/79/1 37/71/1 40/74/1 46/80/1
f 47/81/1 43/77/1 44/78/1 48/82/1
f 49/83/1 45/79/1 46/80/1 50/84/1
f 51/85/1 47/81/1 48/82/1 52/86/1
f 53/87/1 49/83/1 50/84/1 54/88/1
f 55/89/1 51/85/1 52/86/1 56/90/1
f 57/91/1 53/87/1 54/88/1 58/92/1
f 59/93/1 55/89/1 56/90/1 60/94/1
f 61/95/1 57/91/1 58/92/1 62/96/1
f 63/97/1 59/93/1 60/94/1 64/98/1
f 2/52/1 61/95/1 62/96/1 3/53/1
f 41/75/1 63/97/1 64/98/1 42/76/1
f 65/99/1 66/100/1 67/101/1 68/102/1
f 69/103/1 70/104/1 71/105/1 72/106/1
f 73/107/1 65/99/1 68/102/1 74/108/1
f 75/109/1 69/103/1 72/106/1 76/110/1
f 77/111/1 73/107/1 74/108/1 78/112/1
f 79/113/1 75/109/1 76/110/1 80/114/1
f 81/115/1 77/111/1 78/112/1 82/116/1
f 83/117/1 79/113/1 80/114/1 84/118/1
f 85/119/1 81/115/1 82/116/1 86/120/1
f 87/121/1 83/117/1 84/118/1 88/122/1
f 89/123/1 90/124/1 91/125/1 92/126/1
f 90/124/1 85/119/1 86/120/1 91/125/1
f 93/127/1 87/121/1 88/122/1 94/128/1
f 95/129/1 89/123/1 92/126/1 96/130/1
f 66/100/1 93/127/1 94/128/1 67/101/1
f 70/104/1 95/129/1 96/130/1 71/105/1
s 1
f 22/56/34 21/55/35 37/71/36 45/79/37
f 30/64/38 29/63/39 43/77/40 47/81/41
f 23/57/42 22/56/34 45/79/37 49/83/43
f 31/65/44 30/64/38 47/81/41 51/85/45
f 24/58/46 23/57/42 49/83/43 53/87/47
f 32/66/48 31/65/44 51/85/45 55/89/49
f 25/59/50 24/58/46 53/87/47 57/91/51
f 33/67/52 32/66/48 55/89/49 59/93/53
f 26/60/54 25/59/50 57/91/51 61/95/55
f 34/68/56 33/67/52 59/93/53 63/97/57
f 27/61/58 26/60/54 61/95/55 2/52/59
f 35/69/60 34/68/56 63/97/57 41/75/61
f 28/62/62 27/61/58 2/52/59 1/51/63
f 21/55/35 36/70/64 38/72/65 37/71/36
f 36/70/64 35/69/60 41/75/61 38/72/65
f 29/63/39 28/62/62 1/51/63 43/77/40
f 60/94/66 56/90/67 73/107/68 77/111/69
f 62/96/70 58/92/71 75/109/72 79/113/73
f 64/98/74 60/94/66 77/111/69 81/115/75
f 3/53/76 62/96/70 79/113/73 83/117/77
f 42/76/78 64/98/74 81/115/75 85/119/79
f 4/54/80 3/53/76 83/117/77 87/121/81
f 40/74/82 39/73/83 90/124/84 89/123/85
f 39/73/83 42/76/78 85/119/79 90/124/84
f 44/78/86 4/54/80 87/121/81 93/127/87
f 46/80/88 40/74/82 89/123/85 95/129/89
f 48/82/90 44/78/86 93/127/87 66/100/91
f 50/84/92 46/80/88 95/129/89 70/104/93
f 52/86/94 48/82/90 66/100/91 65/99/95
f 54/88/96 50/84/92 70/104/93 69/103/97
f 56/90/67 52/86/94 65/99/95 73/107/68
f 58/92/71 54/88/96 69/103/97 75/109/72
f 92/126/98 91/125/99 97/131/100
f 91/125/99 86/120/101 97/132/100
f 94/128/102 88/122/103 97/133/100
f 96/130/104 92/126/98 97/134/100
f 67/101/105 94/128/102 97/135/100
f 71/105/106 96/130/104 97/136/100
f 68/102/107 67/101/105 97/137/100
f 72/106/108 71/105/106 97/138/100
f 74/108/109 68/102/107 97/139/100
f 76/110/110 72/106/108 97/140/100
f 78/112/111 74/108/109 97/141/100
f 80/114/112 76/110/110 97/142/100
f 82/116/113 78/112/111 97/143/100
f 84/118/114 80/114/112 97/144/100
f 86/120/101 82/116/113 97/145/100
f 88/122/103 84/118/114 97/146/100
